<svg xmlns="http://www.w3.org/2000/svg" version="1.1" width="3300" height="2000"><g id="Notes"><style>
    text {
      font-family: monospace;
      text-anchor: middle;
    }
    text.emphasis {
      font-weight:bold;
    }
    text.lanchor {
      text-anchor: start;
    }
  </style><rect height="2200" id="artboard" fill="white" width="3300" x="0" y="0"/><line id="" style="fill:none;stroke:black;stroke-width:0.5;" x1="263" x2="3036" y1="292" y2="292"/><text class="lanchor emphasis" transform="matrix(1 0 0 1 263 322)">Weight/Scale Variations</text><text transform="matrix(1 0 0 1 559.711 322)">Ultralight</text><text transform="matrix(1 0 0 1 856.422 322)">Thin</text><text transform="matrix(1 0 0 1 1153.13 322)">Light</text><text transform="matrix(1 0 0 1 1449.84 322)">Regular</text><text transform="matrix(1 0 0 1 1746.56 322)">Medium</text><text transform="matrix(1 0 0 1 2043.27 322)">Semibold</text><text transform="matrix(1 0 0 1 2339.98 322)">Bold</text><text transform="matrix(1 0 0 1 2636.69 322)">Heavy</text><text transform="matrix(1 0 0 1 2933.4 322)">Black</text><text id="template-version" style="text-anchor: end;" transform="matrix(1 0 0 1 3036 1933)">Template v.1.0</text><text class="lanchor" transform="matrix(1 0 0 1 263 726)">Small</text><text class="lanchor" transform="matrix(1 0 0 1 263 1156)">Medium</text><text class="lanchor" transform="matrix(1 0 0 1 263 1586)">Large</text></g><g id="Guides"><g id="H-reference" style="fill:#27AAE1;stroke:none;" transform="matrix(1 0 0 1 339 696)"><path d="M 54.9316 0 L 57.666 0 L 30.5664 -70.459 L 28.0762 -70.459 L 0.976562 0 L 3.66211 0 L 12.9395 -24.4629 L 45.7031 -24.4629 Z M 29.1992 -67.0898 L 29.4434 -67.0898 L 44.8242 -26.709 L 13.8184 -26.709 Z"/></g><line id="Baseline-S" style="fill:none;stroke:#27AAE1;opacity:1;stroke-width:0.577;" x1="263" x2="3036" y1="696" y2="696"/><line id="Capline-S" style="fill:none;stroke:#27AAE1;opacity:1;stroke-width:0.577;" x1="263" x2="3036" y1="625.541" y2="625.541"/><g id="H-reference" style="fill:#27AAE1;stroke:none;" transform="matrix(1 0 0 1 339 1126)"><path d="M 54.9316 0 L 57.666 0 L 30.5664 -70.459 L 28.0762 -70.459 L 0.976562 0 L 3.66211 0 L 12.9395 -24.4629 L 45.7031 -24.4629 Z M 29.1992 -67.0898 L 29.4434 -67.0898 L 44.8242 -26.709 L 13.8184 -26.709 Z"/></g><line id="Baseline-M" style="fill:none;stroke:#27AAE1;opacity:1;stroke-width:0.577;" x1="263" x2="3036" y1="1126" y2="1126"/><line id="Capline-M" style="fill:none;stroke:#27AAE1;opacity:1;stroke-width:0.577;" x1="263" x2="3036" y1="1055.54" y2="1055.54"/><g id="H-reference" style="fill:#27AAE1;stroke:none;" transform="matrix(1 0 0 1 339 1556)"><path d="M 54.9316 0 L 57.666 0 L 30.5664 -70.459 L 28.0762 -70.459 L 0.976562 0 L 3.66211 0 L 12.9395 -24.4629 L 45.7031 -24.4629 Z M 29.1992 -67.0898 L 29.4434 -67.0898 L 44.8242 -26.709 L 13.8184 -26.709 Z"/></g><line id="Baseline-L" style="fill:none;stroke:#27AAE1;opacity:1;stroke-width:0.577;" x1="263" x2="3036" y1="1556" y2="1556"/><line id="Capline-L" style="fill:none;stroke:#27AAE1;opacity:1;stroke-width:0.577;" x1="263" x2="3036" y1="1485.54" y2="1485.54"/><rect height="119.336" id="left-margin" style="fill:darkred;stroke:none;opacity:0.4;" width="12.4512" x="1394.06" y="1030.79"/><rect height="119.336" id="right-margin" style="fill:darkgreen;stroke:none;opacity:0.4;" width="12.4512" x="1502.5112" y="1030.79"/><rect x="1406.5112" y="1045" width="96" height="96" fill="none" stroke="blue" stroke-dasharray="5"/><rect x="1394.06" y="1030.79" width="120.9024" height="119.336" fill="none" stroke="blue"/></g><g id="Symbols"><g id="Bold-L" transform="matrix(1 0 0 1 2266 1556)"><path d="M36.4425 11.532500000000017  9.51375 -15.234999999999985  20.3175 -25.877499999999984  36.4425 -9.913749999999986  65.30625 -38.938749999999985  75.94875 -27.97374999999998  36.4425 11.532500000000017 Z M36.4425 -40.06749999999998  9.51375 -66.835  20.3175 -77.47749999999999  36.4425 -61.51374999999999  65.30625 -90.53875  75.94875 -79.57374999999999  36.4425 -40.06749999999998 Z M84.495 -1.851249999999986 V-17.008749999999985 H145.28625 V-1.851249999999986 H84.495 Z M84.495 -53.45124999999999 V-68.60874999999999 H145.28625 V-53.45124999999999 H84.495 Z"/></g><g id="Semibold-L" transform="matrix(1 0 0 1 1970.27 1556)"><path d="M36.16208625 9.850017500000014  10.9859625 -15.234999999999985  20.03708625 -24.195017499999977  36.16208625 -8.23126749999998  65.02583625000001 -37.18612374999998  73.98585375 -27.97374999999998  36.16208625 9.850017500000014 Z M36.16208625 -41.74998249999999  10.9859625 -66.835  20.03708625 -75.79501749999999  36.16208625 -59.831267499999996  65.02583625000001 -88.78612374999997  73.98585375 -79.57374999999999  36.16208625 -41.74998249999999 Z M84.21458625 -3.04304874999999 V-15.816951249999981 H143.8140375 V-3.04304874999999 H84.21458625 Z M84.21458625 -54.64304874999998 V-67.41695125 H143.8140375 V-54.64304874999998 H84.21458625 Z"/></g><g id="Medium-L" transform="matrix(1 0 0 1 1674.31 1556)"><path d="M35.95181625 8.587913750000013  12.0902025 -15.234999999999985  19.82681625 -22.932913749999983  35.95181625 -6.969163749999979  64.81556625 -35.87145249999999  72.51348 -27.97374999999998  35.95181625 8.587913750000013 Z M35.95181625 -43.01208624999998  12.0902025 -66.835  19.82681625 -74.53291374999999  35.95181625 -58.56916374999999  64.81556625 -87.47145249999997  72.51348 -79.57374999999999  35.95181625 -43.01208624999998 Z M84.00431625 -3.937018749999986 V-14.922981249999985 H142.7097975 V-3.937018749999986 H84.00431625 Z M84.00431625 -55.53701874999997 V-66.52298125 H142.7097975 V-55.53701874999997 H84.00431625 Z"/></g><g id="Regular-L" transform="matrix(1 0 0 1 1378.56 1556)"><path d="M35.7975 7.662500000000016  12.9 -15.234999999999985  19.6725 -22.00749999999998  35.7975 -6.043749999999989  64.66125 -34.907499999999985  71.43375 -27.97374999999998  35.7975 7.662500000000016 Z M35.7975 -43.937499999999986  12.9 -66.835  19.6725 -73.60749999999999  35.7975 -57.64374999999998  64.66125 -86.5075  71.43375 -79.57374999999999  35.7975 -43.937499999999986 Z M83.85000000000001 -4.592499999999987 V-14.267499999999984 H141.9 V-4.592499999999987 H83.85000000000001 Z M83.85000000000001 -56.19249999999998 V-65.86749999999999 H141.9 V-56.19249999999998 H83.85000000000001 Z"/></g><g id="Light-L" transform="matrix(1 0 0 1 1082.77 1556)"><path d="M36.7279125 4.747422500000013  16.12516125 -15.855167499999986  21.223080000000003 -20.95308624999999  36.66583125 -5.609503749999988  65.15741625 -34.10124999999999  70.255335 -28.84208124999998  36.7279125 4.747422500000013 Z M36.7279125 -44.37174624999999  16.12516125 -64.97433625  21.223080000000003 -70.07209375  36.66583125 -54.72867249999999  65.15741625 -83.22025749999999  70.255335 -77.96108874999999  36.7279125 -44.37174624999999 Z M83.91208125 -7.0114112499999806 V-14.329581249999983 H138.73675875 V-7.0114112499999806 H83.91208125 Z M83.91208125 -56.13041874999999 V-63.448588749999985 H138.73675875 V-56.13041874999999 H83.91208125 Z"/></g><g id="Thin-L" transform="matrix(1 0 0 1 787.282 1556)"><path d="M37.6580025 1.8326675000000137  19.35 -16.475334999999987  22.773498749999998 -19.898833749999987  37.53400125 -5.175418749999984  65.6535825 -33.29499999999999  69.07708125 -29.710251249999985  37.6580025 1.8326675000000137 Z M37.6580025 -44.80583124999998  19.35 -63.11383374999998  22.773498749999998 -66.53733249999999  37.53400125 -51.81391749999999  65.6535825 -79.93349874999998  69.07708125 -76.34874999999998  37.6580025 -44.80583124999998 Z M83.97400125 -9.429999999999986 V-14.391501249999983 H135.57400125 V-9.429999999999986 H83.97400125 Z M83.97400125 -56.06849874999999 V-61.02999999999999 H135.57400125 V-56.06849874999999 H83.97400125 Z"/></g><g id="Ultralight-L" transform="matrix(1 0 0 1 491.205 1556)"><path d="M38.21625 0.0837500000000162  21.285 -16.847499999999982  23.70375 -19.266249999999985  38.055 -4.914999999999985  65.95125 -32.81124999999999  68.37 -30.23124999999999  38.21625 0.0837500000000162 Z M38.21625 -45.06624999999998  21.285 -61.99749999999999  23.70375 -64.41624999999999  38.055 -50.06499999999998  65.95125 -77.96124999999999  68.37 -75.38125  38.21625 -45.06624999999998 Z M84.01125 -10.881249999999987 V-14.428749999999987 H133.67625 V-10.881249999999987 H84.01125 Z M84.01125 -56.031249999999986 V-59.578749999999985 H133.67625 V-56.031249999999986 H84.01125 Z"/></g><g id="Bold-M" transform="matrix(1 0 0 1 2281.8 1126)"><path d="M28.375 3.7700000000000102  6.5 -17.97999999999999  17.625 -28.97999999999999  28.25 -18.35499999999999  49.5 -39.72999999999999  60.5 -28.47999999999999  28.375 3.7700000000000102 Z M28.375 -36.22999999999999  6.5 -57.97999999999999  17.625 -68.97999999999999  28.25 -58.35499999999999  49.5 -79.72999999999999  60.5 -68.47999999999999  28.375 -36.22999999999999 Z M65.625 -7.35499999999999 V-23.10499999999999 H113.5 V-7.35499999999999 H65.625 Z M65.625 -47.35499999999999 V-63.10499999999999 H113.5 V-47.35499999999999 H65.625 Z"/></g><g id="Semibold-M" transform="matrix(1 0 0 1 1985.97 1126)"><path d="M28.10325 2.0310000000000095  8.021625 -17.97999999999999  17.35325 -27.240999999999993  27.97825 -16.615999999999993  49.22825 -37.93662499999999  58.48925 -28.47999999999999  28.10325 2.0310000000000095 Z M28.10325 -37.96899999999999  8.021625 -57.97999999999999  17.35325 -67.24099999999999  27.97825 -56.615999999999985  49.22825 -77.93662499999999  58.48925 -68.47999999999999  28.10325 -37.96899999999999 Z M65.35325 -8.604874999999993 V-21.855124999999987 H111.978375 V-8.604874999999993 H65.35325 Z M65.35325 -48.60487499999999 V-61.85512499999999 H111.978375 V-48.60487499999999 H65.35325 Z"/></g><g id="Medium-M" transform="matrix(1 0 0 1 1689.91 1126)"><path d="M27.8995 0.7265000000000086  9.163 -17.97999999999999  17.1495 -25.936499999999988  27.7745 -15.311499999999988  49.0245 -36.59137499999999  56.981 -28.47999999999999  27.8995 0.7265000000000086 Z M27.8995 -39.273499999999984  9.163 -57.97999999999999  17.1495 -65.9365  27.7745 -55.311499999999995  49.0245 -76.59137499999999  56.981 -68.47999999999999  27.8995 -39.273499999999984 Z M65.1495 -9.54249999999999 V-20.91749999999999 H110.837 V-9.54249999999999 H65.1495 Z M65.1495 -49.54249999999999 V-60.91749999999999 H110.837 V-49.54249999999999 H65.1495 Z"/></g><g id="Regular-M" transform="matrix(1 0 0 1 1394.06 1126)"><path d="M27.75 -0.22999999999998977  10.0 -17.97999999999999  17.0 -24.97999999999999  27.625 -14.35499999999999  48.875 -35.60499999999999  55.875 -28.47999999999999  27.75 -0.22999999999998977 Z M27.75 -40.22999999999999  10.0 -57.97999999999999  17.0 -64.97999999999999  27.625 -54.35499999999999  48.875 -75.60499999999999  55.875 -68.47999999999999  27.75 -40.22999999999999 Z M65.0 -10.22999999999999 V-20.22999999999999 H110.0 V-10.22999999999999 H65.0 Z M65.0 -50.22999999999999 V-60.22999999999999 H110.0 V-50.22999999999999 H65.0 Z"/></g><g id="Light-M" transform="matrix(1 0 0 1 1098.18 1126)"><path d="M28.47125 -2.970624999999991  12.500125 -18.941624999999988  17.72125 -24.16262499999999  28.34625 -13.537624999999991  49.59625 -34.78762499999999  54.81725 -29.441624999999988  28.47125 -2.970624999999991 Z M28.47125 -41.04737499999999  12.500125 -57.01837499999999  17.72125 -62.239374999999995  28.34625 -51.614374999999995  49.59625 -72.864375  54.81725 -67.51837499999999  28.47125 -41.04737499999999 Z M65.048125 -12.441749999999992 V-19.94149999999999 H107.547875 V-12.441749999999992 H65.048125 Z M65.048125 -50.51849999999999 V-58.018249999999995 H107.547875 V-50.51849999999999 H65.048125 Z"/></g><g id="Thin-M" transform="matrix(1 0 0 1 802.565 1126)"><path d="M29.19225 -5.71074999999999  15.0 -19.90312499999999  18.44225 -23.34537499999999  29.06725 -12.72037499999999  50.31725 -33.97037499999999  53.759625 -30.40312499999999  29.19225 -5.71074999999999 Z M29.19225 -41.86462499999999  15.0 -56.05687499999999  18.44225 -59.49924999999999  29.06725 -48.87424999999999  50.31725 -70.12424999999999  53.759625 -66.55687499999999  29.19225 -41.86462499999999 Z M65.096125 -14.652999999999992 V-19.65312499999999 H105.096125 V-14.652999999999992 H65.096125 Z M65.096125 -50.80687499999999 V-55.80699999999999 H105.096125 V-50.80687499999999 H65.096125 Z"/></g><g id="Ultralight-M" transform="matrix(1 0 0 1 506.415 1126)"><path d="M29.625 -7.35499999999999  16.5 -20.47999999999999  18.875 -22.85499999999999  29.5 -12.22999999999999  50.75 -33.47999999999999  53.125 -30.97999999999999  29.625 -7.35499999999999 Z M29.625 -42.35499999999999  16.5 -55.47999999999999  18.875 -57.85499999999999  29.5 -47.22999999999999  50.75 -68.47999999999999  53.125 -65.97999999999999  29.625 -42.35499999999999 Z M65.125 -15.97999999999999 V-19.47999999999999 H103.625 V-15.97999999999999 H65.125 Z M65.125 -50.97999999999999 V-54.47999999999999 H103.625 V-50.97999999999999 H65.125 Z"/></g><g id="Bold-S" transform="matrix(1 0 0 1 2294.23 696)"><path d="M23.374125 -6.036999999999988  6.7065 -22.605999999999987  14.991000000000001 -30.79187499999999  23.2755 -22.40874999999999  40.04175 -39.27362499999999  48.32625 -30.989124999999987  23.374125 -6.036999999999988 Z M23.374125 -36.807999999999986  6.7065 -53.376999999999995  14.991000000000001 -61.56287499999999  23.374125 -53.179749999999984  40.04175 -70.044625  48.32625 -61.76012499999999  23.374125 -36.807999999999986 Z M52.567125000000004 -14.025624999999987 V-25.663374999999988 H87.9735 V-14.025624999999987 H52.567125000000004 Z M52.567125000000004 -44.79662499999999 V-56.43437499999999 H87.9735 V-44.79662499999999 H52.567125000000004 Z"/></g><g id="Semibold-S" transform="matrix(1 0 0 1 1998.1 696)"><path d="M23.15971425 -7.409070999999987  7.907062125 -22.605999999999987  14.77658925 -29.419803999999992  23.061089250000002 -21.036678999999992  39.82733925 -37.85865212499999  46.73976825 -30.989124999999987  23.15971425 -7.409070999999987 Z M23.15971425 -38.180070999999984  7.907062125 -53.376999999999995  14.77658925 -60.190803999999986  23.15971425 -51.807678999999986  39.82733925 -68.62965212499999  46.73976825 -61.76012499999999  23.15971425 -38.180070999999984 Z M52.352714250000005 -15.01177637499999 V-24.677223624999982 H86.772937875 V-15.01177637499999 H52.352714250000005 Z M52.352714250000005 -45.78277637499999 V-55.44822362499998 H86.772937875 V-45.78277637499999 H52.352714250000005 Z"/></g><g id="Medium-S" transform="matrix(1 0 0 1 1701.85 696)"><path d="M22.9989555 -8.43832149999999  8.807607 -22.605999999999987  14.615830500000001 -28.39055349999999  22.9003305 -20.00742849999999  39.6665805 -36.79724987499999  45.549759 -30.989124999999987  22.9989555 -8.43832149999999 Z M22.9989555 -39.20932149999999  8.807607 -53.376999999999995  14.615830500000001 -59.1615535  22.9989555 -50.7784285  39.6665805 -67.56824987499999  45.549759 -61.76012499999999  22.9989555 -39.20932149999999 Z M52.191955500000006 -15.751562499999988 V-23.937437499999987 H85.872393 V-15.751562499999988 H52.191955500000006 Z M52.191955500000006 -46.52256249999999 V-54.70843749999999 H85.872393 V-46.52256249999999 H52.191955500000006 Z"/></g><g id="Regular-S" transform="matrix(1 0 0 1 1405.73 696)"><path d="M22.881 -9.192999999999987  9.468 -22.605999999999987  14.497875 -27.63587499999999  22.782375000000002 -19.25274999999999  39.548625 -36.01899999999999  44.677125000000004 -30.989124999999987  22.881 -9.192999999999987 Z M22.881 -39.96399999999999  9.468 -53.376999999999995  14.497875 -58.406874999999985  22.881 -50.02374999999999  39.548625 -66.78999999999999  44.677125000000004 -61.76012499999999  22.881 -39.96399999999999 Z M52.074000000000005 -16.293999999999986 V-23.39499999999999 H85.212 V-16.293999999999986 H52.074000000000005 Z M52.074000000000005 -47.06499999999999 V-54.16599999999998 H85.212 V-47.06499999999999 H52.074000000000005 Z"/></g><g id="Light-S" transform="matrix(1 0 0 1 1109.75 696)"><path d="M23.450066250000003 -11.35535312499999  11.440598625000002 -23.364722124999986  15.066941250000001 -26.990966124999993  23.35144125 -18.60784112499999  40.11769125 -35.37409112499999  43.842560250000005 -31.747847124999986  23.450066250000003 -11.35535312499999 Z M23.450066250000003 -40.60890887499999  11.440598625000002 -52.61827787499999  15.066941250000001 -56.24452187499999  23.450066250000003 -47.861396875  40.11769125 -64.627646875  43.842560250000005 -61.001402875  23.450066250000003 -40.60890887499999 Z M52.111970625 -18.03907074999999 V-23.16737349999999 H83.27727337500001 V-18.03907074999999 H52.111970625 Z M52.111970625 -47.29262649999999 V-52.420929249999986 H83.27727337500001 V-47.29262649999999 H52.111970625 Z"/></g><g id="Thin-S" transform="matrix(1 0 0 1 814.015 696)"><path d="M24.018935250000002 -13.517311749999987  13.413 -24.123345624999985  15.635810250000002 -26.346155874999987  23.920310250000004 -17.963030874999987  40.68656025 -34.729280874999986  43.008094125 -32.506470624999984  24.018935250000002 -13.517311749999987 Z M24.018935250000002 -41.25371912499999  13.413 -51.85965437499999  15.635810250000002 -54.08256324999999  24.018935250000002 -45.699438249999986  40.68656025 -62.465688249999985  43.008094125 -60.242779374999984  24.018935250000002 -41.25371912499999 Z M52.149842625000005 -19.783746999999988 V-22.93984562499999 H81.342842625 V-19.783746999999988 H52.149842625000005 Z M52.149842625000005 -47.52015437499999 V-50.67625299999999 H81.342842625 V-47.52015437499999 H52.149842625000005 Z"/></g><g id="Ultralight-S" transform="matrix(1 0 0 1 517.792 696)"><path d="M24.360375 -14.814624999999989  14.5965 -24.57849999999999  15.977250000000002 -25.95924999999999  24.261750000000003 -17.576124999999987  41.028 -34.34237499999999  42.507375 -32.96162499999999  24.360375 -14.814624999999989 Z M24.360375 -41.640624999999986  14.5965 -51.40449999999999  15.977250000000002 -52.78524999999999  24.360375 -44.40212499999999  41.028 -61.16837499999998  42.507375 -59.78762499999999  24.360375 -41.640624999999986 Z M52.172625000000004 -20.830749999999988 V-22.80324999999999 H80.182125 V-20.830749999999988 H52.172625000000004 Z M52.172625000000004 -47.65674999999999 V-49.62924999999999 H80.182125 V-47.65674999999999 H52.172625000000004 Z"/></g></g></svg>